#include "pitches.h"
#include <stdint.h>

/*
 * OpenMPT->custom format
 * search pattern is: |.-
sNOTE_llxlxxxR,    n
 * search pattern is: NOTE_.S
sNOTE_llrSllxxxxR,   n


*/

const int16_t PROGMEM notes[][3]={

// pattern 0
    {NOTE_G5,    NOTE_G3,    0,},
    {0,          0,          0,},
    {0,          NOTE_D3,    0,},
    {0,          0,          0,},
    {0,          NOTE_G3,    0xa8,},
    {0,          0,          0,},
    {0,          NOTE_B3,    0,},
    {0,          0,          0,},
    {NOTE_FS5,   NOTE_D3,    0,},
    {0,          0,          0,},
    {0,          NOTE_A3,    0,},
    {0,          0,          0,},
    {0,          NOTE_D3,    0x88,},
    {0,          0,          0,},
    {0,          NOTE_FS3,   0,},
    {0,          0,          0,},
    {NOTE_E5,    NOTE_E3,    0,},
    {0,          0,          0,},
    {0,          NOTE_B3,    0,},
    {0,          0,          0,},
    {0,          NOTE_E3,    0xa8,},
    {0,          0,          0,},
    {NOTE_FS5,   NOTE_G3,    0,},
    {0,          0,          0,},
    {NOTE_G5,    NOTE_C3,    0,},
    {0,          0,          0,},
    {0,          NOTE_G3,    0,},
    {0,          0,          0,},
    {0,          NOTE_C3,    0xf9,},
    {0,          0,          0,},
    {0,          NOTE_E3,    0,},
    {0,          0,          0,},
    {NOTE_C6,    NOTE_G3,    0,},
    {0,          0,          0,},
    {NOTE_B5,    NOTE_D3,    0,},
    {0,          0,          0,},
    {NOTE_A5,    NOTE_G3,    0xa8,},
    {0,          0,          0,},
    {0,          NOTE_B3,    0,},
    {0,          0,          0,},
    {NOTE_A5,    NOTE_D3,    0,},
    {0,          0,          0,},
    {0,          NOTE_A3,    0,},
    {0,          0,          0,},
    {NOTE_FS5,   NOTE_D3,    0x88,},
    {0,          0,          0,},
    {0,          NOTE_FS3,   0,},
    {0,          0,          0,},
    {NOTE_E5,    NOTE_E3,    0,},
    {0,          0,          0,},
    {0,          NOTE_B3,    0,},
    {0,          0,          0,},
    {0,          NOTE_E3,    0xa8,},
    {0,          0,          0,},
    {0,          NOTE_G3,    0,},
    {0,          0,          0,},
    {NOTE_C5,    NOTE_C3,    0,},
    {0,          0,          0,},
    {0,          NOTE_G3,    0,},
    {0,          0,          0,},
    {0,          NOTE_C3,    0xf9,},
    {0,          0,          0,},
    {NOTE_E5,    NOTE_E3,    0,},
    {0,          0,          0,},

// pattern 1

    {NOTE_G5,    NOTE_G3,    0,},
    {0,          0,          0,},
    {NOTE_B5,    NOTE_D3,    0,},
    {0,          0,          0,},
    {NOTE_D5,    NOTE_G3,    0xa8,},
    {0,          0,          0,},
    {NOTE_B5,    NOTE_B3,    0,},
    {0,          0,          0,},
    {NOTE_D5,    NOTE_D3,    0,},
    {0,          0,          0,},
    {NOTE_FS5,   NOTE_A3,    0,},
    {0,          0,          0,},
    {NOTE_A5,    NOTE_D3,    0xa8,},
    {0,          0,          0,},
    {NOTE_FS5,   NOTE_FS3,   0,},
    {0,          0,          0,},
    {NOTE_E5,    NOTE_E3,    0,},
    {0,          0,          0,},
    {NOTE_G5,    NOTE_B3,    0,},
    {0,          0,          0,},
    {NOTE_B5,    NOTE_E3,    0xa8,},
    {0,          0,          0,},
    {NOTE_G5,    NOTE_G3,    0,},
    {0,          0,          0,},
    {NOTE_C5,    NOTE_C3,    0,},
    {0,          0,          0,},
    {NOTE_E5,    NOTE_G3,    0,},
    {0,          0,          0,},
    {NOTE_G5,    NOTE_C3,    0xa8,},
    {0,          0,          0,},
    {NOTE_E5,    NOTE_E3,    0,},
    {0,          0,          0,},
    {NOTE_G5,    NOTE_G3,    0,},
    {0,          0,          0,},
    {NOTE_B5,    NOTE_D3,    0,},
    {0,          0,          0,},
    {NOTE_D5,    NOTE_G3,    0xa8,},
    {0,          0,          0,},
    {NOTE_B5,    NOTE_B3,    0,},
    {0,          0,          0,},
    {NOTE_D5,    NOTE_D3,    0,},
    {0,          0,          0,},
    {NOTE_FS5,   NOTE_A3,    0,},
    {0,          0,          0,},
    {NOTE_A5,    NOTE_D3,    0xa8,},
    {0,          0,          0,},
    {NOTE_FS5,   NOTE_FS3,   0,},
    {0,          0,          0,},
    {NOTE_E5,    NOTE_E3,    0,},
    {0,          0,          0,},
    {NOTE_G5,    NOTE_B3,    0,},
    {0,          0,          0,},
    {NOTE_B5,    NOTE_E3,    0xa8,},
    {0,          0,          0,},
    {NOTE_G5,    NOTE_G3,    0,},
    {0,          0,          0,},
    {NOTE_C5,    NOTE_C3,    0,},
    {0,          0,          0,},
    {NOTE_G5,    NOTE_G3,    0,},
    {0,          0,          0,},
    {NOTE_D6,    NOTE_C3,    0xa8,},
    {0,          0,          0,},
    {NOTE_G6,    NOTE_E3,    0,},
    {0,          0,          0,},


//pattern 2


    {NOTE_G6,    NOTE_G3,    0,},
    {NOTE_G5,    0,          0,},
    {NOTE_B6,    NOTE_D3,    0,},
    {NOTE_B5,    0,          0,},
    {NOTE_D6,    NOTE_G3,    0xa8,},
    {NOTE_D5,    0,          0,},
    {NOTE_B6,    NOTE_B3,    0,},
    {NOTE_D5,    0,          0,},
    {NOTE_D6,    NOTE_D3,    0,},
    {NOTE_D5,    0,          0,},
    {NOTE_FS6,   NOTE_A3,    0,},
    {NOTE_FS5,   0,          0,},
    {NOTE_A6,    NOTE_D3,    0xa8,},
    {NOTE_A5,    0,          0,},
    {NOTE_FS6,   NOTE_FS3,   0,},
    {NOTE_A5,    0,          0,},
    {NOTE_E6,    NOTE_E3,    0,},
    {NOTE_B5,    0,          0,},
    {NOTE_G6,    NOTE_B3,    0,},
    {NOTE_B5,    0,          0,},
    {NOTE_B6,    NOTE_E3,    0xa8,},
    {NOTE_G5,    0,          0,},
    {NOTE_G6,    NOTE_G3,    0,},
    {NOTE_G5,    0,          0,},
    {NOTE_C6,    NOTE_C3,    0,},
    {NOTE_C5,    0,          0,},
    {NOTE_E6,    NOTE_G3,    0,},
    {NOTE_E5,    0,          0,},
    {NOTE_G6,    NOTE_C3,    0xa8,},
    {NOTE_G5,    0,          0,},
    {NOTE_E6,    NOTE_E3,    0,},
    {NOTE_E5,    0,          0,},
    {NOTE_G6,    NOTE_G3,    0,},
    {NOTE_G5,    0,          0,},
    {NOTE_B6,    NOTE_D3,    0,},
    {NOTE_B5,    0,          0,},
    {NOTE_D6,    NOTE_G3,    0xa8,},
    {NOTE_D5,    0,          0,},
    {NOTE_B6,    NOTE_B3,    0,},
    {NOTE_B5,    0,          0,},
    {NOTE_D6,    NOTE_D3,    0,},
    {NOTE_D5,    0,          0,},
    {NOTE_FS6,   NOTE_A3,    0,},
    {NOTE_FS5,   0,          0,},
    {NOTE_A6,    NOTE_D3,    0xa8,},
    {NOTE_A5,    0,          0,},
    {NOTE_FS6,   NOTE_FS3,   0,},
    {NOTE_A5,    0,          0,},
    {NOTE_E6,    NOTE_E3,    0,},
    {NOTE_E5,    0,          0,},
    {NOTE_G6,    NOTE_B3,    0,},
    {NOTE_G5,    0,          0,},
    {NOTE_B6,    NOTE_E3,    0xa8,},
    {NOTE_B5,    0,          0,},
    {NOTE_G6,    NOTE_G3,    0,},
    {NOTE_G5,    0,          0,},
    {NOTE_C6,    NOTE_C3,    0,},
    {NOTE_C5,    0,          0,},
    {NOTE_E6,    NOTE_G3,    0,},
    {NOTE_E5,    0,          0,},
    {NOTE_G6,    NOTE_C3,    0xa8,},
    {NOTE_G5,    0,          0,},
    {NOTE_E6,    NOTE_E3,    0,},
    {NOTE_E5,    0,          0,},



// pattern 3



    {NOTE_G5,    NOTE_G3,    0,},
    {0,          0,          0,},
    {-2,         NOTE_D3,    0,},
    {NOTE_G5,    0,          0,},
    {0,          NOTE_G3,    0xa8,},
    {-2,         0,          0,},
    {NOTE_G5,    NOTE_B3,    0,},
    {0,          0,          0,},
    {NOTE_A5,    NOTE_D3,    0,},
    {0,          0,          0,},
    {-2,         NOTE_A3,    0,},
    {NOTE_A5,    0,          0,},
    {0,          NOTE_D3,    0xa8,},
    {-2,         0,          0,},
    {NOTE_A5,    NOTE_FS3,   0,},
    {0,          0,          0,},
    {NOTE_B5,    NOTE_E3,    0,},
    {0,          0,          0,},
    {-2,         NOTE_B3,    0,},
    {NOTE_B5,    0,          0,},
    {0,          NOTE_E3,    0xa8,},
    {-2,         0,          0,},
    {NOTE_B5,    NOTE_G3,    0,},
    {0,          0,          0,},
    {NOTE_C6,    NOTE_C3,    0,},
    {0,          0,          0,},
    {-2,         NOTE_G3,    0,},
    {NOTE_C6,    0,          0,},
    {0,          NOTE_C3,    0xa8,},
    {-2,         0,          0,},
    {NOTE_E5,    NOTE_E3,    0,},
    {0,          0,          0,},
    {NOTE_G5,    NOTE_G3,    0,},
    {0,          0,          0,},
    {-2,         NOTE_D3,    0,},
    {NOTE_G5,    0,          0,},
    {0,          NOTE_G3,    0xa8,},
    {-2,         0,          0,},
    {NOTE_G5,    NOTE_B3,    0,},
    {0,          0,          0,},
    {NOTE_A5,    NOTE_D3,    0,},
    {0,          0,          0,},
    {-2,         NOTE_A3,    0,},
    {NOTE_A5,    0,          0,},
    {0,          NOTE_D3,    0xa8,},
    {-2,         0,          0,},
    {NOTE_A5,    NOTE_FS3,   0,},
    {0,          0,          0,},
    {NOTE_B5,    NOTE_E3,    0,},
    {0,          0,          0,},
    {-2,         NOTE_B3,    0,},
    {NOTE_B5,    0,          0,},
    {0,          NOTE_E3,    0xa8,},
    {-2,         0,          0,},
    {NOTE_B5,    NOTE_G3,    0,},
    {0,          0,          0,},
    {NOTE_C6,    NOTE_C3,    0,},
    {0,          0,          0,},
    {-2,         NOTE_G3,    0,},
    {NOTE_C6,    0,          0,},
    {0,          NOTE_C3,    0xa8,},
    {-2,         0,          0,},
    {NOTE_E6,    NOTE_E3,    0,},
    {0,          0,          0,},





// pattern 4



    {NOTE_G5,    NOTE_G3,    0,},
    {NOTE_G4,    0,          0,},
    {-2,         NOTE_D3,    0,},
    {NOTE_G5,    0,          0,},
    {NOTE_G4,    NOTE_G3,    0xa8,},
    {-2,         0,          0,},
    {NOTE_G5,    NOTE_B3,    0,},
    {NOTE_D5,    0,          0,},
    {NOTE_A5,    NOTE_D3,    0,},
    {NOTE_A4,    0,          0,},
    {-2,         NOTE_A3,    0,},
    {NOTE_A5,    0,          0,},
    {NOTE_A4,    NOTE_D3,    0xa8,},
    {-2,         0,          0,},
    {NOTE_A5,    NOTE_FS3,   0,},
    {NOTE_D5,    0,          0,},
    {NOTE_B5,    NOTE_E3,    0,},
    {NOTE_B4,    0,          0,},
    {0,          NOTE_B3,    0,},
    {NOTE_B5,    0,          0,},
    {NOTE_B4,    NOTE_E3,    0xa8,},
    {0,          0,          0,},
    {NOTE_B5,    NOTE_G3,    0,},
    {NOTE_E5,    0,          0,},
    {NOTE_C6,    NOTE_C3,    0,},
    {NOTE_C5,    0,          0,},
    {0,          NOTE_G3,    0,},
    {NOTE_C6,    0,          0,},
    {NOTE_C5,    NOTE_C3,    0xa8,},
    {0,          0,          0,},
    {NOTE_E5,    NOTE_E3,    0,},
    {NOTE_A4,    0,          0,},
    {NOTE_G5,    NOTE_G3,    0,},
    {NOTE_G4,    0,          0,},
    {-2,         NOTE_D3,    0,},
    {NOTE_G5,    0,          0,},
    {NOTE_G4,    NOTE_G3,    0xa8,},
    {-2,         0,          0,},
    {NOTE_G5,    NOTE_B3,    0,},
    {NOTE_B4,    0,          0,},
    {NOTE_A5,    NOTE_D3,    0,},
    {NOTE_A4,    0,          0,},
    {-2,         NOTE_A3,    0,},
    {NOTE_A5,    0,          0,},
    {NOTE_A4,    NOTE_D3,    0xa8,},
    {-2,         0,          0,},
    {NOTE_A5,    NOTE_FS3,   0,},
    {NOTE_D5,    0,          0,},
    {NOTE_B5,    NOTE_E3,    0,},
    {NOTE_B4,    0,          0,},
    {0,          NOTE_B3,    0,},
    {NOTE_B5,    0,          0,},
    {NOTE_B4,    NOTE_E3,    0xa8,},
    {0,          0,          0,},
    {NOTE_B5,    NOTE_G3,    0,},
    {NOTE_B4,    0,          0,},
    {NOTE_C6,    NOTE_C3,    0,},
    {-2,         0,          0,},
    {0,          NOTE_G3,    0,},
    {NOTE_C6,    0,          0,},
    {-2,         NOTE_C3,    0xa8,},
    {0,          0,          0,},
    {NOTE_E6,    NOTE_E3,    0,},
    {-2,         0,          0,},



// pattern 5




    {NOTE_G5,    NOTE_G3,    0,},
    {NOTE_E6,    0,          0,},
    {-2,         NOTE_D3,    0,},
    {NOTE_G5,    0,          0,},
    {NOTE_E6,    NOTE_G3,    0xa8,},
    {-2,         0,          0,},
    {NOTE_G5,    NOTE_B3,    0,},
    {NOTE_B5,    0,          0,},
    {NOTE_A5,    NOTE_D3,    0,},
    {NOTE_FS6,   0,          0,},
    {-2,         NOTE_A3,    0,},
    {NOTE_A5,    0,          0,},
    {NOTE_FS6,   NOTE_D3,    0xa8,},
    {-2,         0,          0,},
    {NOTE_A5,    NOTE_FS3,   0,},
    {NOTE_FS6,   0,          0,},
    {NOTE_B5,    NOTE_E3,    0,},
    {NOTE_G6,    0,          0,},
    {0,          NOTE_B3,    0,},
    {NOTE_B5,    0,          0,},
    {NOTE_G6,    NOTE_E3,    0xa8,},
    {0,          0,          0,},
    {NOTE_B5,    NOTE_G3,    0,},
    {NOTE_G6,    0,          0,},
    {NOTE_C6,    NOTE_C3,    0,},
    {NOTE_A6,    0,          0,},
    {0,          NOTE_G3,    0,},
    {NOTE_C6,    0,          0,},
    {NOTE_A6,    NOTE_C3,    0xa8,},
    {0,          0,          0,},
    {NOTE_E6,    NOTE_E3,    0,},
    {0,          0,          0,},
    {NOTE_G6,    NOTE_G3,    0,},
    {0,          0,          0,},
    {-2,         NOTE_D3,    0,},
    {NOTE_G6,    0,          0,},
    {0,          NOTE_G3,    0xa8,},
    {-2,         0,          0,},
    {NOTE_G6,    NOTE_B3,    0,},
    {0,          0,          0,},
    {-2,         NOTE_D3,    0,},
    {0,          0,          0,},
    {NOTE_FS6,   NOTE_A3,    0,},
    {0,          0,          0,},
    {-2,         NOTE_D3,    0xa8,},
    {0,          0,          0,},
    {0,          NOTE_FS3,   0,},
    {0,          0,          0,},
    {0,          NOTE_E3,    0,},
    {0,          0,          0,},
    {NOTE_E5,    NOTE_B3,    0,},
    {0,          0,          0,},
    {NOTE_E5,    NOTE_E3,    0xa8,},
    {0,          0,          0,},
    {-2,         NOTE_G3,    0,},
    {0,          0,          0,},
    {NOTE_G5,    NOTE_C3,    0,},
    {0,          0,          0,},
    {-2,         NOTE_G3,    0,},
    {0,          0,          0,},
    {0,          NOTE_C3,    0xa8,},
    {0,          0,          0,},
    {NOTE_C5,    NOTE_E3,    0,},
    {NOTE_E5,    0,          0,},






// pattern 6



    {NOTE_G5,    NOTE_G3,    0,},
    {NOTE_B5,    0,          0,},
    {NOTE_D6,    NOTE_D3,    0,},
    {NOTE_G5,    0,          0,},
    {NOTE_B6,    NOTE_G3,    0xa8,},
    {NOTE_D6,    0,          0,},
    {NOTE_G6,    NOTE_B3,    0,},
    {NOTE_G5,    0,          0,},
    {NOTE_A5,    NOTE_D3,    0,},
    {NOTE_D6,    0,          0,},
    {NOTE_FS6,   NOTE_A3,    0,},
    {NOTE_A5,    0,          0,},
    {NOTE_D7,    NOTE_D3,    0xa8,},
    {NOTE_FS6,   0,          0,},
    {NOTE_A6,    NOTE_FS3,   0,},
    {NOTE_A5,    0,          0,},
    {NOTE_B5,    NOTE_E3,    0,},
    {NOTE_E6,    0,          0,},
    {NOTE_G6,    NOTE_B3,    0,},
    {NOTE_B5,    0,          0,},
    {NOTE_E7,    NOTE_E3,    0xa8,},
    {NOTE_G6,    0,          0,},
    {NOTE_B6,    NOTE_G3,    0,},
    {NOTE_B5,    0,          0,},
    {NOTE_C6,    NOTE_C3,    0,},
    {NOTE_E6,    0,          0,},
    {NOTE_G6,    NOTE_G3,    0,},
    {NOTE_C6,    0,          0,},
    {NOTE_E7,    NOTE_C3,    0xa8,},
    {NOTE_G6,    0,          0,},
    {NOTE_C7,    NOTE_E3,    0,},
    {NOTE_C6,    0,          0,},
    {NOTE_G5,    NOTE_G3,    0,},
    {NOTE_B5,    0,          0,},
    {NOTE_D6,    NOTE_D3,    0,},
    {NOTE_G5,    0,          0,},
    {NOTE_B6,    NOTE_G3,    0xa8,},
    {NOTE_D6,    0,          0,},
    {NOTE_G6,    NOTE_B3,    0,},
    {NOTE_G5,    0,          0,},
    {NOTE_A5,    NOTE_D3,    0,},
    {NOTE_D6,    0,          0,},
    {NOTE_FS6,   NOTE_A3,    0,},
    {NOTE_A5,    0,          0,},
    {NOTE_D7,    NOTE_D3,    0xa8,},
    {NOTE_FS6,   0,          0,},
    {NOTE_A6,    NOTE_FS3,   0,},
    {NOTE_A5,    0,          0,},
    {NOTE_B5,    NOTE_E3,    0,},
    {NOTE_E6,    0,          0,},
    {NOTE_G6,    NOTE_B3,    0,},
    {NOTE_B5,    0,          0,},
    {NOTE_E7,    NOTE_E3,    0xa8,},
    {NOTE_G6,    0,          0,},
    {NOTE_B6,    NOTE_G3,    0,},
    {NOTE_B5,    0,          0,},
    {NOTE_C6,    NOTE_C3,    0,},
    {NOTE_E6,    0,          0,},
    {NOTE_G6,    NOTE_G3,    0,},
    {NOTE_C6,    0,          0,},
    {NOTE_E7,    NOTE_C3,    0xa8,},
    {NOTE_G6,    0,          0,},
    {NOTE_C7,    NOTE_E3,    0,},
    {NOTE_C6,    0,          0,},
    {-1,    0,          0,},

// pattern 7

    {-2,         NOTE_G3,    0,},
    {0,          0,          0,},
    {0,          NOTE_D3,    0,},
    {0,          0,          0,},
    {0,          NOTE_G3,    0xa8,},
    {0,          0,          0,},
    {0,          NOTE_B3,    0,},
    {0,          0,          0,},
    {0,          NOTE_D3,    0,},
    {0,          0,          0,},
    {0,          NOTE_A3,    0,},
    {0,          0,          0,},
    {0,          NOTE_D3,    0xa8,},
    {0,          0,          0,},
    {0,          NOTE_FS3,   0,},
    {0,          0,          0,},
    {0,          NOTE_E3,    0,},
    {0,          0,          0,},
    {0,          NOTE_B3,    0,},
    {0,          0,          0,},
    {0,          NOTE_E3,    0xa8,},
    {0,          0,          0,},
    {0,          NOTE_G3,    0,},
    {0,          0,          0,},
    {0,          NOTE_C3,    0,},
    {0,          0,          0,},
    {0,          NOTE_G3,    0,},
    {0,          0,          0,},
    {0,          NOTE_C3,    0xa8,},
    {0,          0,          0,},
    {0,          NOTE_E3,    0,},
    {0,          0,          0,},
    {0,          NOTE_G3,    0,},
    {0,          0,          0,},
    {0,          NOTE_D3,    0,},
    {0,          0,          0,},
    {0,          NOTE_G3,    0xa8,},
    {0,          0,          0,},
    {0,          NOTE_B3,    0,},
    {0,          0,          0,},
    {0,          NOTE_D3,    0,},
    {0,          0,          0,},
    {0,          NOTE_A3,    0,},
    {0,          0,          0,},
    {0,          NOTE_D3,    0xa8,},
    {0,          0,          0,},
    {0,          NOTE_FS3,   0,},
    {0,          0,          0,},
    {0,          NOTE_E3,    0,},
    {0,          0,          0,},
    {0,          NOTE_B3,    0,},
    {0,          0,          0,},
    {0,          NOTE_E3,    0xa8,},
    {0,          0,          0,},
    {0,          NOTE_G3,    0,},
    {0,          0,          0,},
    {0,          NOTE_C3,    0,},
    {0,          0,          0,},
    {0,          NOTE_G3,    0,},
    {0,          0,          0,},
    {0,          NOTE_C3,    0xa8,},
    {0,          0,          0,},
    {0,          NOTE_E3,    0,},
    {0,          0,          0,},



};

